<?xml version="1.0" standalone="no"?>
<!DOCTYPE svg PUBLIC "-//W3C//DTD SVG 20010904//EN"
 "http://www.w3.org/TR/2001/REC-SVG-20010904/DTD/svg10.dtd">
<svg version="1.0" xmlns="http://www.w3.org/2000/svg"
 width="270.000000pt" height="270.000000pt" viewBox="0 0 270.000000 270.000000"
 preserveAspectRatio="xMidYMid meet">
<metadata>
Created by potrace 1.11, written by Peter Selinger 2001-2013
</metadata>
<g transform="translate(0.000000,270.000000) scale(0.100000,-0.100000)"
fill="#000000" stroke="none">
<path d="M1399 2446 c-2 -2 -74 -6 -159 -10 -172 -8 -216 -12 -275 -27 -50
-12 -147 -49 -159 -61 -6 -4 -18 -8 -28 -8 -10 0 -18 -3 -18 -8 0 -4 -15 -13
-32 -21 -31 -13 -125 -74 -172 -110 -59 -46 -158 -156 -199 -222 -42 -68 -96
-206 -112 -289 -11 -55 -16 -308 -6 -314 5 -3 12 6 16 22 9 39 68 187 110 276
19 42 36 79 36 83 0 5 6 15 13 23 7 8 24 36 39 61 43 76 106 149 154 179 45
29 154 66 278 96 13 3 130 22 180 29 50 7 332 7 400 0 92 -10 175 -25 223 -41
114 -38 221 -116 270 -197 13 -20 29 -37 34 -37 6 0 9 -3 5 -6 -3 -3 8 -32 24
-65 60 -117 88 -247 84 -389 -2 -125 -23 -188 -92 -282 -91 -125 -166 -173
-310 -203 -82 -16 -265 -23 -313 -12 -94 22 -149 56 -176 110 -28 53 -17 189
17 233 5 6 31 9 60 7 58 -4 225 -57 250 -79 40 -36 131 -26 204 21 83 54 115
142 110 300 -4 120 -10 152 -41 230 -72 179 -198 254 -434 259 -221 6 -447
-51 -621 -154 -72 -42 -301 -260 -386 -365 -177 -219 -213 -460 -103 -701 91
-201 299 -361 577 -443 73 -22 98 -27 183 -40 101 -16 291 -17 376 -2 32 6 73
14 89 17 17 2 68 16 115 30 239 72 433 207 570 399 27 38 50 73 50 77 0 4 -66
-26 -147 -67 -198 -99 -402 -186 -473 -200 -8 -2 -33 -8 -55 -13 -152 -40
-409 -34 -487 10 -75 43 -262 271 -321 391 -50 101 -58 136 -64 270 l-5 119
46 92 c25 51 52 120 59 153 18 74 26 90 69 128 130 119 308 172 468 142 106
-21 112 -22 170 -52 77 -39 133 -96 166 -168 48 -106 37 -251 -22 -274 -24 -9
-89 42 -129 102 -42 64 -85 88 -195 109 -138 26 -239 -11 -282 -104 -44 -95
-74 -314 -54 -405 25 -121 63 -167 193 -232 158 -80 278 -113 428 -117 126 -3
206 21 395 121 309 162 454 332 493 577 21 128 13 219 -28 336 -51 148 -128
252 -275 374 -74 62 -105 92 -170 166 -64 74 -348 165 -524 170 -39 0 -73 3
-77 5 -3 3 -8 3 -10 1z"/>
</g>
</svg>
