<?xml version="1.0" encoding="UTF-8" standalone="no"?>
<svg
   xmlns:dc="http://purl.org/dc/elements/1.1/"
   xmlns:cc="http://creativecommons.org/ns#"
   xmlns:rdf="http://www.w3.org/1999/02/22-rdf-syntax-ns#"
   xmlns:svg="http://www.w3.org/2000/svg"
   xmlns="http://www.w3.org/2000/svg"
   xmlns:sodipodi="http://sodipodi.sourceforge.net/DTD/sodipodi-0.dtd"
   xmlns:inkscape="http://www.inkscape.org/namespaces/inkscape"
   width="1000"
   height="1000"
   id="svg2"
   version="1.1"
   inkscape:version="0.91 r13725"
   sodipodi:docname="Coca-Cola_logo_2016.svg">
  <metadata
     id="metadata9">
    <rdf:RDF>
      <cc:Work
         rdf:about="">
        <dc:format>image/svg+xml</dc:format>
        <dc:type
           rdf:resource="http://purl.org/dc/dcmitype/StillImage" />
        <dc:title></dc:title>
      </cc:Work>
    </rdf:RDF>
  </metadata>
  <defs
     id="defs7" />
  <sodipodi:namedview
     pagecolor="#ffffff"
     bordercolor="#666666"
     borderopacity="1"
     objecttolerance="10"
     gridtolerance="10"
     guidetolerance="10"
     inkscape:pageopacity="0"
     inkscape:pageshadow="2"
     inkscape:window-width="1366"
     inkscape:window-height="705"
     id="namedview5"
     showgrid="false"
     inkscape:zoom="0.1767767"
     inkscape:cx="-828.54423"
     inkscape:cy="246.60029"
     inkscape:window-x="-8"
     inkscape:window-y="-8"
     inkscape:window-maximized="1"
     inkscape:current-layer="layer1" />
  <g
     inkscape:label="Layer 1"
     inkscape:groupmode="layer"
     id="layer1"
     transform="translate(-21.61104,443.42501)">
    <circle
       style="fill:#e30613;fill-opacity:1;fill-rule:nonzero;stroke:none;stroke-width:33;stroke-linecap:square;stroke-linejoin:miter;stroke-miterlimit:4;stroke-dasharray:none;stroke-opacity:1"
       id="path4148"
       cx="521.61108"
       cy="56.574966"
       r="500" />
    <path
       style="fill:#ffffff;fill-opacity:1"
       id="path152"
       d="m 392.59594,167.92024 c 23.57872,-0.92083 49.54388,5.68372 70.87584,20.64475 -7.1256,-10.2663 -27.22242,-25.31692 -44.0277,-35.71182 -17.06242,-10.51796 -38.9421,-17.28589 -64.06911,-17.49837 -64.75619,-0.54818 -135.25211,30.9113 -183.03545,31.33029 -56.3118,0.49681 -59.12298,-42.85407 -54.94802,-66.64536 8.98648,-51.259518 45.34659,-100.17182826 68.73516,-125.946879 23.38893,-25.797493 47.88976,-45.81631 68.26065,-50.930008 20.34833,-5.113665 18.44268,10.378226 15.94443,12.51318 -2.57637,0.02383 -7.49993,0.581623 -10.28877,2.514981 -4.39829,3.06258 -10.26641,8.573004 -10.62412,17.352996 -0.61507,13.53572 16.87241,15.927582 29.50846,-12.429454 8.6344,-19.320027 -5.05218,-32.436788 -16.4084,-33.71661 -15.57587,-1.721375 -39.37803,3.705236 -67.819,21.963758 C 145.23975,-36.872247 79.103303,33.735593 77.404273,112.01091 c -0.96739,44.69844 28.228407,69.80848 68.254687,69.80848 41.72531,0 94.40999,-24.50094 147.49702,-25.11004 32.83928,-0.30695 54.10999,11.19416 64.90166,29.98892 0,0.0111 10.71383,-17.78879 34.5383,-18.77803 m 148.86083,-188.210776 -26.72535,0 -15.08381,24.4561653 26.7195,0 15.08966,-24.4561653 z m 394.67971,-43.904811 c -19.7617,12.674988 -47.15192,24.182294 -73.4299,21.644983 -6.6449,6.918886 -13.79297,14.860346 -20.95765,23.578834 45.66536,9.0311365 85.56289,-19.281095 106.8392,-43.340513 13.24539,-15.04475 19.80086,-28.43513 19.80086,-28.43513 0,0 -12.67511,13.932479 -32.25251,26.551826 z m -21.58361,111.533676 -28.14456,0 -4.54913,7.080958 c 0,0 -5.7229,-10.350262 -15.44735,-10.165869 -16.65994,0.273508 -33.31987,12.97143 -52.66223,35.018788 -14.18973,16.162611 -37.72378,52.120224 -37.72378,52.120224 0,0 -18.04605,27.79272 -27.18347,25.62982 -15.54792,-3.70511 13.07746,-61.296851 13.07746,-61.296851 0,0 15.05037,-9.305262 34.53818,-25.735984 12.2841,-10.333674 26.4066,-24.540022 39.40035,-37.701325 11.79791,-11.965571 25.73611,-28.2510904 38.95894,-46.084681 -3.37561,0.548192 -6.85164,0.888574 -10.39506,1.111898 -11.85915,15.6315222 -24.54,29.631236 -35.30923,40.758286 -16.03412,16.559489 -30.76595,30.140024 -41.49613,38.774533 -10.24981,8.276934 -16.85006,11.987781 -16.85006,11.987781 0,0 19.59399,-40.238627 52.24313,-84.6912797 32.65488,-44.4244583 78.35941,-85.7528943 74.77696,-66.1366873 -1.02951,5.633335 -4.50447,13.681202 -9.78572,23.237848 3.72757,-0.772723 7.35456,-1.715742 10.81402,-2.827892 7.85773,-16.240726 10.51795,-29.631248 4.67214,-33.487555 C 879.53421,-100.85213 818.58932,-35.592777 788.03595,2.3599475 757.49907,40.273959 729.8351,98.239884 729.8351,98.239884 c 0,0 -4.756,1.989616 -10.0598,2.995586 -3.33071,0.61388 -4.75586,0.51354 -5.29784,0.29023 -0.27351,-0.0836 -0.29024,-0.29023 -0.29024,-0.29023 0,0 26.86975,-50.23132 -0.63059,-56.91529 -26.55302,-6.415971 -72.55336,42.686382 -88.90004,76.867 -11.23262,23.42772 -17.56116,52.93606 1.67681,59.97797 20.83181,7.60609 56.24888,-30.44731 64.56892,-41.51298 8.34048,-11.06564 18.71451,-29.42461 18.71451,-29.42461 0,0 5.09255,-0.29022 7.87949,-0.64731 5.30237,-0.78825 7.7961,-1.45145 7.7961,-1.45145 0,0 -3.43675,9.05324 -7.16683,20.45342 -6.95782,21.37568 -13.22401,51.91184 11.79873,53.31433 15.94824,0.88856 39.33609,-27.87106 39.33609,-27.87106 0,0 -6.308,25.60747 14.37676,27.87106 15.27729,1.69927 37.5125,-21.91944 37.5125,-21.91944 0,0 -4.84077,20.36982 10.64623,22.15018 13.24444,1.51845 32.06441,-13.99901 47.48882,-31.09953 16.84937,-18.67318 29.7798,-39.12709 29.7798,-39.12709 l -9.80815,0 c 0,0 -21.66901,32.90377 -36.88406,41.72556 -12.51138,7.22905 -8.23586,-4.35889 -4.44296,-10.43697 4.19143,-6.7475 56.6467,-95.834935 56.6467,-95.834935 z M 700.26513,109.32836 c -0.37382,0.88858 -7.41596,13.13887 -14.96078,22.75714 -8.10925,10.37247 -22.96961,25.98738 -31.87796,22.69562 -13.95508,-5.17507 1.40294,-35.54416 11.42322,-50.29844 10.0598,-14.748324 11.18854,-15.737676 11.46241,-16.156775 0.29022,-0.37382 0.58163,-0.755988 0.82168,-0.273487 0.25679,0.481304 3.43687,6.519631 9.76924,11.756219 6.32626,5.303683 12.40687,8.109133 12.9099,8.276823 0.51357,0.18153 0.85513,0.35709 0.48132,1.22344 z m 6.28746,-10.965209 c -0.88857,1.458738 -1.53146,1.548181 -3.33093,1.07847 -3.24698,-0.871851 -16.57598,-7.064116 -16.46981,-20.751052 0.0717,-13.34561 18.87861,-26.401229 26.25552,-20.829048 6.87421,5.219985 3.60479,18.565824 1.0295,25.339249 -2.59894,6.767917 -6.89465,14.228902 -7.46098,15.172902 z m 127.75209,33.012559 c -3.70512,5.0689 -6.78466,9.67955 -9.59572,12.90419 -5.99101,6.91901 -9.91446,10.12682 -13.39049,10.98194 -1.76042,0.41323 -3.91758,0.30812 -5.36508,-0.56491 -5.1137,-3.07929 -1.53148,-15.23464 7.35468,-31.49795 8.1538,-14.87694 17.55961,-29.776459 33.02916,-46.877813 15.50863,-17.230098 21.46073,-18.023715 25.79738,-17.856032 3.66631,0.181526 4.16936,4.001537 4.16936,4.001537 0,0 -0.24008,0.871853 -0.83842,1.883315 -5.13053,8.908358 -30.93364,53.025773 -41.16099,67.025373 z M 271.96937,-23.017873 c -27.1387,-6.935476 -72.21729,39.294171 -91.2244,76.88933 -11.71967,23.182064 -16.84994,52.355153 4.00154,59.938923 20.85137,7.56717 56.24456,-30.447198 64.56617,-41.512719 8.32161,-11.049076 21.96364,-33.219436 21.96364,-33.219436 0,0 4.16911,-0.804969 6.91327,-1.428158 2.72721,-0.598356 7.1703,-1.887016 7.1703,-1.887016 0,0 -5.13614,9.157867 -9.76351,18.524499 -5.49372,11.110437 -20.41545,48.11881 8.39983,59.20683 27.49654,10.60165 66.68428,-33.616198 68.74113,-34.431902 0,0 -11.65241,30.111712 6.4549,34.744792 19.88458,5.07464 41.66382,-20.390241 41.66382,-20.390241 0,0 -4.59393,19.110421 10.89808,20.893291 27.74207,3.23025 76.80536,-67.712711 76.80536,-67.712711 l -9.80803,0 c 0,0 -24.9591,32.106936 -36.96934,38.77095 -12.01012,6.64276 -7.69007,-5.177344 -4.42075,-10.436378 4.16923,-6.706301 57.18926,-95.309429 57.18926,-95.309429 l -28.12233,0 -3.24686,5.152619 c 0,0 -5.80686,-8.863707 -15.50885,-8.237772 -28.18946,1.827553 -61.72169,46.754915 -76.47586,66.583861 -14.73182,19.783889 -46.54281,57.60834 -63.3089,50.882456 -18.25269,-7.357681 -0.0837,-41.074302 11.90403,-60.880643 13.0775,-21.56701 36.25384,-42.9213136 45.41385,-43.0889844 11.27228,-0.2233456 6.82933,10.02051894 6.82933,10.02051894 0,0 -8.42218,-1.07846644 -14.51938,6.62269576 -4.32019,5.4265997 -7.90253,13.3681587 -3.79481,17.7048297 6.64504,6.980402 15.27955,-0.09551 20.43241,-8.025175 16.09538,-24.6239573 4.32006,-37.595379 -8.31599,-39.484294 -26.93209,-4.040611 -51.74583,30.5366198 -70.5854,43.385275 -13.0776,8.92498 -18.52664,8.215429 -18.52664,8.215429 0,0 22.67354,-44.514135 -4.75587,-51.494548 z m 121.88395,79.639107 c 8.13157,-14.899519 19.24204,-29.256819 33.65511,-47.2805446 14.44126,-18.0011411 21.62839,-19.4709764 25.97091,-19.2810829 3.66608,0.2078103 4.19144,4.0016684 4.19144,4.0016684 0,0 -31.37506,54.6183801 -42.7535,70.2500111 -3.71084,5.091246 -6.89656,9.411416 -9.68527,12.613605 -5.99103,6.941352 -10.35039,10.272172 -13.70354,11.110453 -1.73808,0.464587 -3.9177,0.324856 -5.36509,-0.564919 -5.1138,-3.101751 -1.20338,-14.586486 7.68994,-30.849674 z M 260.77497,38.888212 c -0.37382,0.855121 -9.34406,15.676295 -16.86655,25.316907 -8.11499,10.372594 -23.0981,26.048889 -32.04564,22.740414 -13.95495,-5.158474 0.92079,-35.37647 10.98181,-50.108307 10.03735,-14.75407 11.50719,-16.659816 11.79776,-17.039974 0.29021,-0.357104 0.56492,-0.73331 0.82169,-0.273488 0.24005,0.464577 3.43209,7.025186 10.35111,11.468123 6.91314,4.420759 13.99971,6.455024 14.50264,6.600255 0.49803,0.20781 0.8384,0.396517 0.4813,1.298694 z m 11.67499,-23.053555 c -2.59869,6.790366 -4.92354,11.088227 -5.38754,12.094188 -0.78824,1.613869 -2.72159,1.095188 -2.72159,1.095188 -2.17973,-0.08355 -19.25875,-3.979095 -19.15831,-17.68824 0.0717,-13.3457172 18.88434,-26.406705 26.26148,-20.8291556 6.87409,5.2199867 3.60467,18.5267614 1.0295,25.3351666 z m 338.39047,28.251089 c -13.9941,1.147723 -38.74647,13.664349 -52.24325,41.076918 -13.47435,27.390346 -13.53574,44.262506 -13.53574,44.262506 0,0 7.12551,-7.75705 18.00103,-15.95003 10.93727,-8.17065 19.02968,-11.06567 19.02968,-11.06567 0,0 2.02867,-10.037352 7.0584,-20.555176 4.90694,-10.227361 12.65851,-20.873827 22.27665,-23.288251 19.49344,-4.878988 10.14341,30.665399 -4.14677,53.841617 -7.69005,12.46837 -34.97984,48.28638 -58.46895,48.28638 -23.49513,0 -28.02192,-22.65658 -23.07592,-43.82097 4.94613,-21.170006 11.79765,-48.079762 46.06211,-96.947189 34.28678,-48.8956 71.38474,-77.85635 92.86192,-90.034153 22.0476,-12.51317 31.03969,-7.019444 31.03969,-7.019444 0,0 -28.16701,17.330544 -44.17866,38.182031 -15.31862,19.92936 -24.45617,42.379191 -17.35288,53.400184 6.79014,10.478782 30.62037,10.668796 56.87611,-27.284049 25.94845,-37.410866 19.40972,-59.687526 19.40972,-59.687526 0,0 3.11835,-1.046221 5.21414,-1.29977 12.64179,-1.696771 22.76297,1.637638 38.45588,9.685506 16.43074,8.422176 32.191,21.941185 53.78034,32.984387 6.51642,-7.125379 13.74809,-14.690633 21.37675,-22.086415 -29.13404,-14.167396 -51.24304,-34.370628 -79.8068,-36.276264 -24.85291,-1.67657 -44.45264,7.377139 -44.45264,7.377139 0,0 -7.56142,-10.333651 -30.95022,-6.957938 -23.41114,3.371902 -95.4383,33.528627 -156.7575,131.669903 -55.43435,88.776538 -29.30172,139.639178 10.54027,139.052538 43.18942,-0.61388 84.26647,-48.66451 98.15978,-88.273732 13.91601,-39.584764 -2.51475,-50.337385 -15.17314,-49.270029 z m 84.79175,-82.483722 c -7.2262,17.68835 -17.93405,30.0727684 -28.45761,39.5009044 -13.47446,12.1164106 -20.89627,11.7140526 -24.09845,9.2661976 -8.34407,-6.371178 2.86682,-30.408133 22.36037,-51.891308 19.40399,-21.415686 36.10858,-28.083055 36.10858,-28.083055 0.0238,0.273509 2.80556,9.975737 -5.91289,31.207261 z"
       clip-path="none"
       inkscape:connector-curvature="0" />
  </g>
</svg>
