<?xml version="1.0" standalone="no"?>
<!DOCTYPE svg PUBLIC "-//W3C//DTD SVG 20010904//EN"
 "http://www.w3.org/TR/2001/REC-SVG-20010904/DTD/svg10.dtd">
<svg version="1.0" xmlns="http://www.w3.org/2000/svg"
 width="225.000000pt" height="225.000000pt" viewBox="0 0 225.000000 225.000000"
 preserveAspectRatio="xMidYMid meet">
<metadata>
Created by potrace 1.11, written by Peter Selinger 2001-2013
</metadata>
<g transform="translate(0.000000,225.000000) scale(0.100000,-0.100000)"
fill="#000000" stroke="none">
<path d="M1811 2114 c-1 -57 -35 -183 -65 -241 -44 -88 -99 -148 -167 -182
-34 -17 -74 -31 -88 -32 -21 -1 -19 -3 15 -14 108 -34 179 -97 234 -205 36
-72 69 -193 71 -259 1 -38 3 -32 14 38 25 157 92 295 178 365 21 16 68 40 105
52 52 18 60 23 37 23 -50 2 -127 45 -178 100 -54 58 -109 167 -126 251 -6 30
-15 75 -20 100 l-9 45 -1 -41z"/>
<path d="M786 2055 c-40 -481 -300 -862 -629 -917 l-77 -14 76 -12 c113 -18
209 -68 304 -158 183 -175 284 -404 324 -739 8 -68 14 -93 15 -65 2 70 29 237
52 318 54 195 138 342 263 468 107 107 194 155 319 177 l77 13 -76 12 c-324
51 -572 403 -627 892 l-13 115 -8 -90z"/>
<path d="M1646 1050 c-13 -91 -36 -170 -68 -234 -59 -117 -120 -173 -225 -206
-48 -15 -53 -18 -27 -19 47 -2 128 -47 179 -102 73 -78 118 -191 141 -354 l8
-50 7 67 c24 224 137 392 289 431 l51 13 -58 17 c-142 39 -256 210 -281 422
l-8 70 -8 -55z"/>
</g>
</svg>
